<svg xmlns="http://www.w3.org/2000/svg" viewBox="0 0 512 512">
  <!-- Background -->
  <rect width="512" height="512" rx="100" fill="#2D7A3E"/>
  
  <!-- Oil drop shape -->
  <path d="M256 80 C256 80, 160 220, 160 290 C160 342, 204 384, 256 384 C308 384, 352 342, 352 290 C352 220, 256 80, 256 80Z" fill="white" opacity="0.95"/>
  
  <!-- Inner drop highlight -->
  <path d="M256 180 C256 180, 220 250, 220 285 C220 308, 236 325, 256 325 C276 325, 292 308, 292 285 C292 250, 256 180, 256 180Z" fill="#2D7A3E" opacity="0.3"/>
  
  <!-- Leaf accent top-left -->
  <path d="M100 100 Q140 60, 180 100 Q140 120, 100 100Z" fill="#F5A623" opacity="0.8"/>
  <line x1="100" y1="100" x2="180" y2="100" stroke="#F5A623" stroke-width="3" opacity="0.6"/>
  
  <!-- Leaf accent bottom-right -->
  <path d="M332 412 Q372 372, 412 412 Q372 432, 332 412Z" fill="#F5A623" opacity="0.8"/>
  <line x1="332" y1="412" x2="412" y2="412" stroke="#F5A623" stroke-width="3" opacity="0.6"/>
</svg>
